<svg xmlns="http://www.w3.org/2000/svg" width="1200" height="800" viewBox="0 0 1200 800">
  <defs>
    <linearGradient id="bg" x1="0" y1="0" x2="1" y2="1">
      <stop offset="0%" stop-color="#151311"/>
      <stop offset="100%" stop-color="#201a15"/>
    </linearGradient>
  </defs>
  <rect width="1200" height="800" fill="url(#bg)"/>
  <text x="600" y="84" text-anchor="middle" fill="#efe4c0" font-size="42" font-family="Arial, sans-serif" font-weight="700">
    Audience is already in chats
  </text>
  <text x="600" y="120" text-anchor="middle" fill="#b9ab8b" font-size="21" font-family="Arial, sans-serif">
    Retail - Education - Delivery - Agencies
  </text>
  <g transform="translate(600,400)">
    <circle r="74" fill="#262019" stroke="#6a5735" stroke-width="2"/>
    <circle r="28" fill="#e8d68a"/>
  </g>
  <g stroke="#7f6b41" stroke-width="2" opacity="0.8">
    <line x1="600" y1="400" x2="260" y2="180"/>
    <line x1="600" y1="400" x2="920" y2="170"/>
    <line x1="600" y1="400" x2="1020" y2="430"/>
    <line x1="600" y1="400" x2="860" y2="650"/>
    <line x1="600" y1="400" x2="350" y2="650"/>
    <line x1="600" y1="400" x2="180" y2="430"/>
  </g>
  <g fill="#2a241d" stroke="#6a5735">
    <circle cx="260" cy="180" r="62"/><circle cx="920" cy="170" r="62"/>
    <circle cx="1020" cy="430" r="62"/><circle cx="860" cy="650" r="62"/>
    <circle cx="350" cy="650" r="62"/><circle cx="180" cy="430" r="62"/>
  </g>
  <g fill="#d9c172">
    <circle cx="260" cy="180" r="18"/><circle cx="920" cy="170" r="18"/>
    <circle cx="1020" cy="430" r="18"/><circle cx="860" cy="650" r="18"/>
    <circle cx="350" cy="650" r="18"/><circle cx="180" cy="430" r="18"/>
  </g>
  <text x="600" y="408" text-anchor="middle" fill="#f3e9c7" font-size="24" font-family="Arial, sans-serif" font-weight="700">
    Your brand message
  </text>
</svg>
