<svg xmlns="http://www.w3.org/2000/svg" width="1400" height="900" viewBox="0 0 1400 900">
  <defs>
    <linearGradient id="bg" x1="0" y1="0" x2="1" y2="1">
      <stop offset="0%" stop-color="#151311"/>
      <stop offset="100%" stop-color="#221b16"/>
    </linearGradient>
    <linearGradient id="gold" x1="0" y1="0" x2="1" y2="1">
      <stop offset="0%" stop-color="#f4e4ae"/>
      <stop offset="100%" stop-color="#c59b43"/>
    </linearGradient>
  </defs>
  <rect width="1400" height="900" fill="url(#bg)"/>
  <text x="700" y="98" text-anchor="middle" fill="#efe4c0" font-size="48" font-family="Arial, sans-serif" font-weight="700">
    Chatrassylka Platform
  </text>
  <text x="700" y="138" text-anchor="middle" fill="#bfae88" font-size="24" font-family="Arial, sans-serif">
    Mass messaging with queue and schedule
  </text>
  <g opacity="0.3">
    <path d="M80 760 C 320 600, 520 640, 760 460" stroke="#8d7742" stroke-width="3" fill="none"/>
    <path d="M150 820 C 380 680, 620 700, 920 520" stroke="#755f35" stroke-width="2" fill="none"/>
  </g>
  <g transform="translate(190,150)">
    <rect x="0" y="0" width="760" height="520" rx="28" fill="#201a15" stroke="#4e3f2e"/>
    <rect x="34" y="34" width="280" height="18" rx="9" fill="#6f5c34"/>
    <rect x="34" y="70" width="190" height="14" rx="7" fill="#4f4433"/>
    <rect x="34" y="120" width="692" height="86" rx="16" fill="#28221c" stroke="#5e4e3a"/>
    <rect x="34" y="224" width="692" height="86" rx="16" fill="#28221c" stroke="#5e4e3a"/>
    <rect x="34" y="328" width="692" height="86" rx="16" fill="#28221c" stroke="#5e4e3a"/>
    <rect x="34" y="448" width="692" height="26" rx="13" fill="url(#gold)"/>
    <text x="380" y="272" text-anchor="middle" fill="#d5c8a3" font-size="24" font-family="Arial, sans-serif" font-weight="600">
      Template -> Queue -> Send -> Repeat
    </text>
  </g>
  <g transform="translate(1000,220)">
    <circle cx="110" cy="110" r="108" fill="none" stroke="#d9be77" stroke-opacity="0.35"/>
    <path d="M110 160 C 63 128, 58 84, 88 70 C 108 62, 124 75, 130 92 C 136 75, 152 62, 172 70 C 201 84, 197 128, 150 160 L 130 177 Z"
      fill="url(#gold)"/>
  </g>
</svg>
